<svg width="400" height="61" xmlns="http://www.w3.org/2000/svg"><g fill="none" fill-rule="evenodd"><g fill-rule="nonzero" stroke-width=".748"><path d="M9.945 44.32c.23 0 .414-.068.55-.204.137-.137.205-.32.205-.551h0v-2.203c2.224-.23 3.991-.912 5.303-2.045 1.31-1.133 1.967-2.612 1.967-4.437 0-1.238-.263-2.255-.787-3.052-.525-.797-1.338-1.458-2.44-1.983-1.1-.524-2.585-.996-4.452-1.416-1.343-.335-2.376-.65-3.1-.944-.724-.293-1.248-.629-1.574-1.007-.325-.377-.487-.85-.487-1.416 0-.839.33-1.479.991-1.92.66-.44 1.568-.66 2.722-.66 1.05 0 1.925.226 2.628.677.703.45 1.117 1.012 1.243 1.683.168.378.472.567.913.567h2.99a.64.64 0 00.471-.19.64.64 0 00.19-.471c-.043-.776-.32-1.574-.835-2.392-.514-.818-1.259-1.536-2.234-2.155-.976-.619-2.145-1.023-3.51-1.212h0v-2.234c0-.23-.067-.414-.204-.55-.136-.137-.32-.205-.55-.205h0-1.952a.758.758 0 00-.535.205.715.715 0 00-.22.55h0v2.171c-2.056.252-3.677.944-4.862 2.077S.598 23.521.598 25.157c0 1.804.577 3.188 1.73 4.153 1.155.965 2.97 1.742 5.445 2.329 1.49.399 2.617.74 3.383 1.023.766.283 1.338.613 1.715.99.378.378.567.85.567 1.417 0 .86-.373 1.536-1.117 2.03-.745.492-1.841.739-3.289.739-1.3 0-2.324-.241-3.068-.724-.745-.482-1.233-1.08-1.464-1.793a1.454 1.454 0 00-.393-.457c-.136-.094-.33-.141-.582-.141h0H.692a.666.666 0 00-.487.204.632.632 0 00-.205.456c.042.965.34 1.873.897 2.722.556.85 1.374 1.568 2.455 2.156 1.08.587 2.376.954 3.886 1.101h0v2.203c0 .23.074.414.22.55a.758.758 0 00.535.205h1.952zM33.821 41.488c2.832 0 5.03-.724 6.593-2.171 1.563-1.448 2.345-3.64 2.345-6.577h0V19.933a.8.8 0 00-.205-.566.715.715 0 00-.55-.22h0-2.896c-.23 0-.42.073-.566.22a.767.767 0 00-.22.566h0V32.74c0 1.658-.394 2.906-1.18 3.745-.788.839-1.905 1.258-3.352 1.258-1.448 0-2.565-.42-3.352-1.258-.787-.84-1.18-2.087-1.18-3.745h0V19.933c0-.23-.074-.42-.22-.566a.767.767 0 00-.567-.22h0-2.895a.715.715 0 00-.55.22.8.8 0 00-.205.566h0V32.74c0 2.937.786 5.13 2.36 6.577 1.573 1.447 3.787 2.171 6.64 2.171zM60.09 19.147l.396.005c2.35.06 4.211.655 5.583 1.788 1.447 1.196 2.171 2.937 2.171 5.224 0 2.265-.724 3.98-2.171 5.145-1.448 1.164-3.441 1.746-5.98 1.746h0-4.626v7.363l-.009.133a.678.678 0 01-.211.418.8.8 0 01-.567.204h0-3.02l-.123-.008a.722.722 0 01-.413-.212.728.728 0 01-.22-.535h0V19.933l.008-.133a.715.715 0 01.747-.653h8.434zm-.158 3.524H55.4v6.86h4.532c1.217 0 2.145-.289 2.785-.866.64-.577.96-1.42.96-2.533 0-1.09-.31-1.94-.929-2.549-.618-.608-1.557-.912-2.816-.912h0zM89.977 41.173a.8.8 0 00.566-.204.715.715 0 00.22-.55h0v-2.14a.715.715 0 00-.22-.551.8.8 0 00-.566-.205h0-10.575v-5.695h9.63a.8.8 0 00.567-.205.715.715 0 00.22-.55h0V29.09c0-.23-.073-.42-.22-.566a.767.767 0 00-.567-.22h0-9.63v-5.507h10.323a.8.8 0 00.566-.205.715.715 0 00.22-.55h0v-2.109c0-.23-.073-.42-.22-.566a.767.767 0 00-.566-.22h0-13.879a.715.715 0 00-.55.22.8.8 0 00-.205.566h0v20.485c0 .21.073.388.22.535.147.147.326.22.535.22h14.13zM107.024 19.147l.383.004c2.398.057 4.29.653 5.675 1.79 1.458 1.195 2.187 2.894 2.187 5.097 0 1.531-.367 2.816-1.101 3.855-.735 1.038-1.763 1.788-3.084 2.25h0l4.563 8.023.041.093c.035.09.053.175.053.254a.616.616 0 01-.204.472.657.657 0 01-.457.188h0-2.895l-.162-.006c-.259-.022-.467-.099-.625-.23a2.288 2.288 0 01-.503-.613h0l-4.028-7.458h-4.312v7.552l-.009.122a.722.722 0 01-.211.413.767.767 0 01-.567.22h0-2.895l-.122-.008a.722.722 0 01-.413-.212.728.728 0 01-.22-.535h0V19.933l.008-.133a.715.715 0 01.747-.653h8.15zm-.095 3.524h-4.374v6.608h4.374c1.26 0 2.203-.278 2.833-.834.63-.556.944-1.369.944-2.439s-.315-1.893-.944-2.47c-.63-.577-1.574-.865-2.833-.865h0z" stroke="#74FFF1" fill="#74FFF1"/><path d="M128.225 41.173c.567 0 .934-.262 1.102-.786h0l3.524-10.447 3.525 10.447c.063.21.189.393.378.55.189.158.43.236.724.236h2.14c.314 0 .571-.084.77-.251.2-.168.32-.399.363-.693h0l3.713-20.17a.818.818 0 00.032-.252.64.64 0 00-.19-.472.604.604 0 00-.44-.188h0-2.832c-.525 0-.818.21-.881.629h0l-2.581 14.16-2.832-9.125a1.23 1.23 0 00-.346-.551c-.168-.157-.389-.236-.661-.236h0-1.731c-.483 0-.829.262-1.039.787h0l-2.8 9.125-2.613-14.16c-.042-.23-.126-.393-.251-.488-.126-.094-.326-.141-.598-.141h0-2.833a.64.64 0 00-.472.188.64.64 0 00-.189.472h0l.032.252 3.713 20.17c.147.63.525.944 1.133.944h2.14zM160.882 19.147l.145.006c.468.044.797.304.988.78h0l7.553 20.296.063.284-.008.11a.609.609 0 01-.197.362.657.657 0 01-.456.188h0-2.801l-.142-.007c-.364-.04-.621-.236-.77-.59h0l-1.448-3.808h-9.315l-1.448 3.808-.061.125c-.176.315-.46.472-.852.472h0-2.8l-.11-.007a.64.64 0 01-.551-.653h0l.062-.284 7.553-20.296.062-.136c.218-.434.575-.65 1.071-.65h3.462zm-1.73 4.28l-3.557 9.69h7.112l-3.556-9.69zM190.392 41.173c.23 0 .42-.073.566-.22a.728.728 0 00.22-.535h0v-2.265a.728.728 0 00-.22-.535.767.767 0 00-.566-.22h0-9.976V19.901c0-.23-.069-.414-.205-.55-.136-.137-.32-.205-.55-.205h0-2.959a.758.758 0 00-.535.204.715.715 0 00-.22.55h0v20.517c0 .21.073.388.22.535.147.147.325.22.535.22h13.69zM212.097 41.173c.23 0 .42-.073.566-.22a.728.728 0 00.22-.535h0v-2.265a.728.728 0 00-.22-.535.767.767 0 00-.566-.22h0-9.977V19.901c0-.23-.068-.414-.204-.55-.136-.137-.32-.205-.55-.205h0-2.959a.758.758 0 00-.535.204.715.715 0 00-.22.55h0v20.517c0 .21.073.388.22.535.147.147.325.22.535.22h13.69z" stroke="#FFF" fill="#FFF"/></g><g fill="#5DC6BD"><path d="M236.23 15h53.54c3.21 0 4.373.334 5.547.962a6.542 6.542 0 012.721 2.721c.628 1.174.962 2.338.962 5.547v11.81c0 3.21-.334 4.374-.962 5.547a6.542 6.542 0 01-2.721 2.722c-1.174.627-2.338.961-5.547.961h-53.54c-3.21 0-4.373-.334-5.547-.961a6.542 6.542 0 01-2.721-2.722c-.628-1.173-.962-2.337-.962-5.547V24.23c0-3.21.334-4.373.962-5.547a6.542 6.542 0 012.721-2.721c1.174-.628 2.338-.962 5.547-.962z" opacity=".146"/><path d="M243.283 36.739c1.922 0 3.344-.43 4.266-1.287.923-.858 1.41-2.19 1.461-3.996.026-.748.039-1.245.039-1.49 0-.258-.013-.761-.039-1.51-.077-3.508-2.019-5.262-5.824-5.262h-4.722a.44.44 0 00-.338.135.492.492 0 00-.126.348v12.597c0 .13.045.239.135.33.09.09.2.135.33.135h4.818zm-.097-2.245h-2.458v-9.056h2.361c1.084 0 1.877.248 2.38.745.503.497.768 1.274.793 2.332.026.748.04 1.225.04 1.432 0 .193-.014.677-.04 1.45-.025 1.11-.277 1.904-.754 2.381-.477.477-1.251.716-2.322.716zm13.642 2.438c1.754 0 3.125-.445 4.111-1.335.987-.89 1.507-2.212 1.558-3.967a53.23 53.23 0 00.039-1.645c0-.36-.013-.916-.039-1.664-.051-1.715-.584-3.031-1.596-3.947-1.013-.916-2.37-1.374-4.073-1.374-1.716 0-3.077.458-4.083 1.374-1.006.916-1.535 2.232-1.587 3.947-.013.374-.02.93-.02 1.664l.001.263c.001.594.008 1.055.019 1.382.052 1.755.568 3.077 1.548 3.967.98.89 2.354 1.335 4.122 1.335zm0-2.245c-.865 0-1.552-.26-2.061-.783-.51-.523-.777-1.313-.803-2.37-.013-.388-.02-.91-.02-1.568v-.245c.002-.554.008-.995.02-1.322.026-1.058.296-1.848.812-2.37.516-.523 1.2-.784 2.052-.784.838 0 1.515.26 2.031.783.516.523.794 1.313.832 2.37.026.749.04 1.271.04 1.568 0 .27-.014.793-.04 1.567-.038 1.071-.31 1.864-.812 2.38-.503.516-1.187.774-2.051.774zm13.448 2.245c1.148 0 2.148-.197 2.999-.59.851-.394 1.513-.932 1.983-1.616.471-.684.72-1.451.745-2.303a.325.325 0 00-.106-.29.427.427 0 00-.3-.116h-1.877c-.155 0-.27.036-.348.107-.078.07-.142.196-.194.377-.193.8-.532 1.364-1.016 1.693-.483.329-1.112.493-1.886.493-1.845 0-2.806-1.032-2.883-3.096-.013-.374-.02-.922-.02-1.644v-.234c.002-.605.008-1.063.02-1.372.077-2.064 1.038-3.096 2.883-3.096.787 0 1.419.164 1.896.493.477.329.813.893 1.006 1.693.052.18.116.307.194.377.077.071.193.107.348.107h1.877a.424.424 0 00.28-.107.33.33 0 00.126-.26v-.04a4.199 4.199 0 00-.745-2.302c-.47-.684-1.132-1.222-1.983-1.616-.851-.393-1.851-.59-3-.59-1.766 0-3.14.461-4.12 1.384-.981.922-1.504 2.209-1.568 3.86-.013.361-.02.942-.02 1.741 0 .787.007 1.355.02 1.703.064 1.677.584 2.97 1.558 3.88.974.91 2.35 1.364 4.13 1.364zm12.751 0c1.097 0 2.061-.161 2.893-.484.832-.322 1.477-.79 1.935-1.403.458-.612.687-1.338.687-2.177 0-.76-.161-1.386-.484-1.876-.322-.49-.822-.897-1.5-1.22-.676-.322-1.59-.612-2.737-.87-.839-.22-1.477-.416-1.916-.59-.438-.175-.76-.378-.967-.61-.207-.232-.31-.522-.31-.87 0-.517.203-.91.61-1.181.406-.271.964-.406 1.673-.406.645 0 1.187.138 1.626.416.438.277.69.622.754 1.035.104.232.297.348.58.348h1.84a.379.379 0 00.29-.126.404.404 0 00.116-.28c-.026-.555-.242-1.113-.649-1.674-.406-.561-1-1.029-1.78-1.403-.78-.374-1.706-.561-2.777-.561-1.019 0-1.912.168-2.68.503-.767.335-1.357.797-1.77 1.384a3.396 3.396 0 00-.62 2.002c0 1.11.355 1.961 1.065 2.555.71.593 1.825 1.07 3.347 1.431.93.246 1.63.455 2.1.63.47.173.822.377 1.055.609.232.232.348.522.348.87 0 .53-.23.946-.687 1.249-.458.303-1.139.454-2.042.454-.8 0-1.428-.148-1.886-.445-.458-.296-.752-.664-.88-1.103a1.027 1.027 0 00-.252-.27.585.585 0 00-.348-.097H277.9a.379.379 0 00-.29.126.404.404 0 00-.117.28c.026.67.252 1.29.678 1.858.425.567 1.051 1.025 1.877 1.374.825.348 1.818.522 2.98.522z" fill-rule="nonzero"/></g></g></svg>